<?xml version="1.0" standalone="no"?>
<!DOCTYPE svg PUBLIC "-//W3C//DTD SVG 20010904//EN"
 "http://www.w3.org/TR/2001/REC-SVG-20010904/DTD/svg10.dtd">
<svg version="1.0" xmlns="http://www.w3.org/2000/svg"
 width="1563.000000pt" height="1563.000000pt" viewBox="0 0 1563.000000 1563.000000"
 preserveAspectRatio="xMidYMid meet">

<g transform="translate(0.000000,1563.000000) scale(0.100000,-0.100000)"
fill="#000000" stroke="none">
<path d="M0 7815 l0 -7815 7815 0 7815 0 0 7815 0 7815 -7815 0 -7815 0 0
-7815z m8205 6350 c389 -47 465 -59 700 -110 61 -13 130 -29 155 -34 128 -27
429 -115 555 -162 28 -10 64 -21 80 -25 17 -3 39 -12 50 -19 11 -6 38 -18 60
-24 167 -53 544 -225 862 -396 104 -55 447 -273 553 -350 30 -22 65 -47 77
-55 11 -8 81 -62 155 -120 212 -167 432 -361 586 -519 136 -138 368 -396 401
-444 8 -12 31 -40 50 -63 93 -106 199 -250 345 -469 161 -242 294 -481 441
-796 108 -233 109 -236 201 -476 42 -111 74 -204 94 -273 10 -36 26 -85 34
-110 79 -232 197 -786 211 -990 5 -65 3 -89 -8 -103 -13 -16 -55 -17 -538 -23
-288 -3 -580 -1 -648 3 l-125 8 -18 30 c-9 17 -24 76 -33 130 -8 55 -21 124
-29 152 -8 29 -17 76 -21 105 -4 29 -14 71 -22 93 -8 22 -23 74 -33 115 -25
99 -52 186 -90 290 -17 47 -37 103 -44 125 -7 22 -20 56 -29 75 -8 19 -34 82
-57 140 -112 280 -336 675 -544 958 -219 299 -606 706 -873 917 -145 116 -249
193 -298 225 -13 8 -63 42 -112 76 -84 58 -121 81 -328 198 -121 69 -362 183
-521 246 -109 44 -401 143 -484 165 -14 3 -54 15 -90 25 -185 53 -454 103
-735 136 -316 37 -732 39 -1020 6 -233 -27 -297 -36 -400 -57 -491 -97 -878
-226 -1280 -426 -110 -55 -216 -109 -235 -121 -19 -11 -84 -50 -145 -86 -303
-180 -638 -445 -925 -732 -177 -177 -419 -459 -520 -606 -251 -366 -345 -533
-521 -929 -29 -65 -86 -214 -110 -288 -10 -32 -23 -66 -28 -76 -6 -10 -19 -51
-31 -92 -11 -41 -32 -112 -46 -159 -14 -47 -33 -124 -44 -171 -10 -48 -22 -95
-28 -105 -5 -11 -13 -46 -16 -79 -4 -33 -16 -98 -26 -145 -11 -47 -24 -146
-30 -220 -7 -74 -16 -153 -21 -175 -6 -22 -12 -175 -16 -340 -4 -238 -2 -331
11 -450 9 -82 21 -195 26 -250 11 -107 53 -347 75 -430 7 -27 18 -77 25 -110
21 -115 173 -589 225 -702 8 -17 15 -34 15 -38 0 -11 26 -66 138 -295 249
-506 512 -867 952 -1310 224 -225 457 -420 670 -560 118 -78 307 -194 366
-225 38 -20 74 -40 79 -45 12 -9 127 -67 205 -103 30 -14 93 -43 140 -65 47
-22 103 -46 125 -53 22 -7 45 -16 50 -20 50 -36 563 -197 745 -234 497 -101
909 -131 1385 -101 143 10 287 21 320 26 159 23 276 43 335 57 36 8 90 19 120
24 30 5 93 21 140 35 47 13 114 33 150 44 152 45 208 63 265 85 33 13 103 40
155 60 52 20 113 45 135 55 22 10 67 30 100 45 170 77 376 186 521 276 38 23
94 58 124 76 30 19 89 59 130 88 41 30 107 77 145 104 39 27 82 59 96 73 14
13 37 33 51 43 168 130 493 455 689 690 46 55 87 105 92 110 4 6 33 44 63 85
30 41 60 82 67 90 12 16 111 166 152 230 222 350 438 835 545 1225 16 61 36
130 44 155 8 25 22 85 31 134 9 49 21 100 26 112 4 13 13 63 20 111 12 92 29
145 56 175 15 17 54 18 650 18 751 0 680 14 669 -134 -4 -50 -14 -122 -22
-161 -9 -38 -22 -108 -29 -155 -14 -89 -36 -193 -61 -295 -8 -33 -22 -89 -30
-125 -8 -36 -23 -92 -33 -125 -11 -33 -33 -107 -51 -165 -18 -58 -38 -121 -46
-140 -7 -19 -18 -51 -23 -70 -11 -39 -56 -164 -71 -195 -5 -11 -26 -63 -46
-115 -20 -52 -54 -132 -75 -178 -21 -46 -39 -85 -39 -88 0 -9 -152 -309 -212
-419 -63 -115 -122 -215 -193 -325 -22 -36 -54 -87 -71 -113 -16 -26 -40 -63
-54 -82 -14 -18 -47 -65 -75 -105 -63 -89 -267 -339 -405 -496 -188 -214 -439
-458 -650 -634 -41 -34 -77 -65 -80 -69 -3 -3 -23 -20 -45 -37 -129 -98 -215
-163 -250 -186 -22 -15 -60 -42 -85 -59 -147 -105 -300 -200 -490 -306 -188
-105 -518 -273 -535 -273 -4 0 -36 -14 -73 -31 -133 -62 -149 -69 -163 -69 -8
0 -27 -7 -44 -16 -16 -9 -55 -24 -85 -34 -30 -10 -100 -34 -155 -53 -55 -19
-140 -47 -190 -62 -49 -15 -117 -36 -150 -46 -33 -10 -91 -26 -130 -34 -269
-62 -344 -77 -450 -94 -66 -11 -145 -24 -175 -30 -30 -5 -89 -13 -130 -16 -41
-3 -129 -14 -195 -23 -97 -13 -209 -16 -580 -17 -414 0 -480 2 -660 23 -545
61 -918 143 -1370 299 -55 19 -125 43 -155 53 -105 35 -278 106 -435 179 -22
11 -51 24 -65 30 -14 6 -32 15 -40 20 -8 5 -37 20 -65 33 -198 93 -610 335
-765 449 -14 10 -68 48 -120 84 -132 91 -194 140 -464 365 -173 145 -500 484
-719 746 -107 129 -248 315 -314 414 -9 14 -37 57 -63 95 -124 185 -350 588
-424 755 -16 36 -47 103 -69 150 -76 164 -85 186 -111 250 -14 36 -34 90 -45
120 -10 30 -31 87 -46 125 -14 39 -33 97 -42 130 -8 33 -19 65 -23 71 -5 6
-16 40 -25 77 -8 37 -20 79 -26 94 -12 31 -38 132 -74 295 -13 59 -26 111 -28
115 -3 5 -11 47 -17 93 -6 47 -18 111 -26 142 -8 32 -19 106 -24 165 -6 60
-17 149 -25 198 -48 297 -46 1102 5 1425 11 69 24 159 29 200 13 106 39 252
61 340 39 158 62 257 74 315 7 33 17 69 23 80 6 11 16 45 23 75 13 58 49 169
100 310 17 47 35 97 40 112 43 134 246 594 322 733 6 11 25 45 41 75 160 299
400 663 609 924 28 35 218 256 267 311 205 229 666 647 884 803 62 43 102 72
133 94 39 29 217 147 304 203 268 173 665 376 970 495 159 62 377 139 475 168
39 12 99 30 135 41 36 11 92 27 125 35 33 9 85 22 115 29 79 21 201 47 310 69
91 18 130 24 450 70 80 11 222 24 315 28 235 11 875 2 1010 -15z m445 -2571
c52 -14 118 -34 145 -44 28 -10 61 -22 75 -25 81 -21 322 -124 485 -207 333
-170 663 -415 960 -712 125 -125 341 -380 410 -483 13 -21 31 -47 38 -58 38
-55 107 -165 107 -169 0 -3 16 -30 35 -60 49 -76 153 -288 213 -431 51 -122
142 -384 163 -465 112 -450 152 -811 130 -1202 -10 -192 -48 -486 -75 -596 -9
-31 -22 -86 -31 -122 -44 -174 -93 -342 -118 -400 -45 -104 -67 -158 -67 -165
0 -4 -7 -23 -16 -43 -267 -594 -637 -1079 -1110 -1454 -182 -143 -241 -184
-484 -332 -19 -12 -46 -28 -60 -36 -39 -22 -281 -140 -287 -140 -3 0 -31 -12
-62 -26 -31 -14 -69 -32 -86 -39 -90 -42 -417 -143 -491 -152 -37 -4 -42 -2
-47 19 -9 33 -7 1329 2 1352 4 11 42 34 92 55 101 44 268 128 289 145 8 7 38
25 65 41 175 98 467 361 612 550 34 44 72 94 86 110 103 129 283 496 329 668
10 40 10 49 -3 62 -13 13 -285 15 -2340 17 -1279 1 -2330 -2 -2337 -6 -39 -24
13 -186 140 -439 112 -223 255 -422 425 -593 180 -181 255 -241 458 -371 93
-59 309 -173 329 -173 6 0 21 -15 34 -33 l22 -33 0 -661 c0 -644 0 -660 -20
-678 -15 -13 -29 -16 -59 -11 -71 11 -273 78 -388 128 -23 10 -45 18 -48 18
-14 0 -262 113 -305 140 -8 5 -62 35 -120 66 -58 32 -116 65 -130 75 -14 9
-68 45 -120 79 -97 64 -298 215 -380 285 -25 21 -122 116 -215 209 -152 153
-273 295 -417 495 -97 133 -279 462 -356 641 -11 25 -27 63 -37 85 -57 130
-139 384 -175 540 -10 44 -25 109 -34 145 -14 63 -41 222 -57 345 -5 33 -11
173 -15 310 -7 263 5 528 31 640 7 33 16 89 20 125 3 36 14 97 24 135 11 39
26 99 35 135 28 111 57 214 63 230 3 8 16 47 29 85 34 105 60 177 78 210 9 17
16 34 16 38 0 4 25 60 55 123 30 64 55 117 55 118 0 4 125 227 146 262 10 17
28 44 38 60 10 16 44 67 75 114 212 325 650 760 996 990 44 29 91 61 105 70
253 170 623 335 991 444 73 21 85 20 103 -6 14 -20 16 -101 16 -675 0 -467 -3
-659 -11 -677 -9 -18 -45 -41 -128 -82 -183 -90 -294 -160 -461 -293 -387
-308 -664 -701 -805 -1139 -18 -54 -21 -80 -15 -98 l10 -24 2328 0 c2304 0
2329 0 2347 20 15 17 16 25 6 67 -20 77 -99 269 -158 383 -149 285 -392 582
-627 765 -22 17 -46 37 -55 46 -15 15 -52 42 -171 125 -61 42 -373 204 -394
204 -8 0 -28 13 -45 29 l-31 29 0 662 c0 407 4 668 10 679 12 23 42 20 170
-15z"/>
</g>
</svg>
